<?xml version="1.0" standalone="no"?>
<!DOCTYPE svg PUBLIC "-//W3C//DTD SVG 20010904//EN"
 "http://www.w3.org/TR/2001/REC-SVG-20010904/DTD/svg10.dtd">
<svg version="1.0" xmlns="http://www.w3.org/2000/svg"
 width="459.000000pt" height="459.000000pt" viewBox="0 0 459.000000 459.000000"
 preserveAspectRatio="xMidYMid meet">
<metadata>
Created by potrace 1.14, written by Peter Selinger 2001-2017
</metadata>
<g transform="translate(0.000000,459.000000) scale(0.100000,-0.100000)"
fill="#000000" stroke="none">
<path d="M3846 2284 c-3 -9 -6 -47 -6 -85 0 -63 2 -69 23 -73 283 -58 487
-160 665 -329 l62 -60 0 105 0 106 -75 57 c-41 32 -75 62 -75 66 0 5 -6 9 -13
9 -8 0 -22 9 -33 21 -10 12 -52 39 -92 61 -42 23 -69 44 -65 50 3 7 1 8 -6 4
-6 -4 -53 6 -104 23 -188 61 -270 75 -281 45z"/>
<path d="M4271 2196 c2 -2 15 -9 29 -15 24 -11 24 -11 6 3 -16 13 -49 24 -35
12z"/>
<path d="M4350 2156 c0 -3 14 -13 30 -21 17 -9 68 -45 115 -80 84 -64 109 -79
85 -50 -26 32 -230 166 -230 151z"/>
<path d="M3737 1849 c-46 -14 -69 -29 -107 -68 -27 -28 -53 -51 -59 -51 -12 0
-74 -57 -286 -262 -89 -87 -169 -158 -177 -158 -9 0 -40 -26 -69 -57 -30 -32
-65 -66 -79 -76 -14 -9 -65 -51 -115 -92 -49 -41 -95 -75 -102 -75 -24 0 -92
-42 -108 -66 -12 -19 -33 -126 -35 -180 0 -22 -57 -37 -107 -29 -27 5 -55 9
-63 10 -22 3 -133 36 -145 43 -5 4 -18 8 -27 9 -20 3 -134 37 -318 93 -74 23
-144 44 -155 47 -25 6 -234 73 -340 108 -44 15 -93 29 -110 32 -16 2 -39 8
-50 13 -11 5 -51 18 -90 30 -38 12 -124 39 -190 60 -66 21 -183 58 -260 81
-77 23 -156 50 -176 60 l-37 18 -7 -32 c-3 -18 -7 -45 -8 -60 -2 -27 -4 -28
-41 -21 -27 4 -36 3 -32 -5 4 -6 3 -11 -2 -11 -10 0 -6 -342 4 -427 l5 -42 80
-26 c43 -15 77 -30 75 -34 -11 -17 35 -69 78 -89 25 -12 50 -22 55 -22 10 0
178 -52 336 -104 39 -13 104 -34 145 -46 41 -13 91 -28 110 -35 19 -7 51 -17
70 -22 77 -22 151 -45 265 -82 66 -21 181 -58 255 -81 74 -23 160 -50 190 -60
85 -28 216 -67 315 -93 144 -38 246 -26 334 41 53 41 971 967 992 1001 10 16
50 63 89 104 l70 75 -2 232 -3 232 -105 -98 c-58 -54 -83 -75 -57 -47 27 27
49 56 51 64 1 8 7 23 13 35 13 23 15 146 2 139 -4 -3 -9 5 -11 18 l-3 23 -58
-17z m-47 -322 c0 -2 -10 -12 -22 -23 l-23 -19 19 23 c18 21 26 27 26 19z
m-2899 -568 c83 -27 99 -46 99 -116 l0 -56 -37 6 c-21 3 -48 9 -60 13 -20 5
-23 3 -23 -20 0 -29 -8 -32 -32 -13 -12 9 -17 37 -21 110 -2 53 -1 97 2 97 4
0 36 -9 72 -21z m172 -61 c4 -29 7 -74 7 -100 0 -40 -2 -46 -19 -41 -21 5 -29
45 -32 143 -1 74 -2 72 20 61 12 -7 20 -26 24 -63z m129 -34 c56 -17 64 -30
74 -114 6 -52 4 -62 -7 -58 -8 3 -39 13 -69 23 -60 19 -90 45 -90 79 0 38 17
46 67 29 24 -8 47 -12 50 -9 11 10 -9 22 -59 36 -30 8 -48 18 -48 27 0 10 6
13 18 8 9 -4 38 -13 64 -21z m183 -57 c69 -26 85 -48 85 -124 0 -45 -2 -51
-19 -46 -14 4 -20 18 -25 66 -7 69 -9 72 -51 81 l-30 7 3 -61 c2 -33 0 -60 -5
-60 -23 1 -32 21 -38 88 -9 83 -11 82 80 49z m131 5 c6 -4 15 -17 19 -30 3
-13 18 -27 31 -32 32 -13 31 -32 -1 -24 -24 6 -25 4 -25 -40 0 -41 3 -47 30
-61 39 -20 30 -38 -11 -23 -43 15 -56 42 -64 136 -7 79 -3 91 21 74z m194
-117 c0 -8 -9 -10 -25 -7 -24 4 -25 3 -25 -56 0 -54 -2 -60 -19 -55 -15 4 -20
17 -24 66 -3 34 -1 67 4 73 12 15 89 -3 89 -21z m99 -21 c73 -21 91 -42 91
-104 0 -35 -4 -52 -14 -56 -21 -8 -121 22 -136 41 -14 17 -25 97 -17 120 8 19
11 19 76 -1z m192 -60 c25 -8 53 -22 62 -32 16 -17 37 -142 24 -142 -26 0 -37
17 -43 71 -7 61 -14 72 -52 82 -23 5 -24 4 -20 -54 2 -50 0 -59 -14 -59 -23 0
-24 4 -32 89 -7 69 -6 73 11 66 10 -4 39 -13 64 -21z m139 -4 c8 -5 11 -12 8
-16 -10 -9 -38 3 -38 16 0 12 10 13 30 0z m680 -13 c0 -2 -10 -12 -22 -23
l-23 -19 19 23 c18 21 26 27 26 19z m-679 -27 c16 -9 19 -22 19 -80 0 -69 -4
-77 -26 -62 -12 7 -30 152 -19 152 3 0 15 -5 26 -10z m115 -36 c27 -9 53 -20
58 -25 19 -17 -2 -19 -42 -5 l-42 15 0 -43 c0 -48 12 -63 59 -72 30 -6 48 -20
38 -30 -7 -8 -90 16 -111 31 -22 17 -38 101 -25 128 12 21 5 20 65 1z m166
-50 c34 -10 58 -22 58 -30 0 -17 1 -17 -48 0 -27 10 -44 11 -48 5 -8 -14 1
-21 49 -39 52 -19 80 -61 57 -84 -13 -14 -22 -13 -74 2 -33 10 -62 24 -64 31
-3 10 2 12 19 7 69 -19 81 -19 78 -1 -3 11 -19 22 -44 29 -43 12 -73 51 -62
79 8 21 7 21 79 1z"/>
<path d="M760 904 c0 -48 7 -60 43 -73 43 -17 47 -14 47 28 0 40 -20 71 -45
71 -7 0 -20 3 -29 6 -13 5 -16 -1 -16 -32z"/>
<path d="M1042 778 c2 -14 15 -25 41 -34 36 -13 37 -12 37 12 0 17 -8 27 -26
34 -41 16 -56 12 -52 -12z"/>
<path d="M1667 652 c-2 -4 -2 -26 1 -49 3 -36 8 -43 34 -52 47 -17 50 -15 42
37 -3 26 -8 48 -9 50 -6 8 -65 20 -68 14z"/>
<path d="M4055 295 c-368 -124 -465 -160 -482 -181 -29 -32 -31 -58 -4 -49 14
4 24 -3 41 -30 l22 -35 479 0 479 0 0 69 c0 64 -1 69 -20 64 -11 -3 -20 0 -20
6 0 6 7 11 16 11 9 0 14 6 11 13 -2 7 -16 11 -32 9 -30 -3 -63 27 -42 40 6 3
16 -1 22 -9 7 -9 24 -17 38 -19 23 -2 27 1 26 24 0 15 -3 21 -6 15 -7 -18 -53
-16 -60 3 -5 13 -7 13 -14 2 -7 -10 -9 -9 -9 4 0 20 -29 38 -61 38 -18 0 -20
3 -11 12 7 7 12 18 12 26 0 12 -3 12 -16 1 -13 -11 -14 -9 -8 17 4 16 8 31 11
33 7 9 74 -30 68 -39 -3 -6 0 -10 9 -10 8 0 16 3 19 8 2 4 3 3 2 -3 -1 -5 1
-18 4 -27 5 -15 10 -16 31 -5 22 11 25 19 28 80 3 64 2 68 -23 77 -15 6 -32
10 -39 10 -6 0 -219 -70 -471 -155z m452 80 c0 -8 -4 -12 -9 -9 -5 3 -6 10 -3
15 9 13 12 11 12 -6z m-153 -36 c-3 -5 -10 -7 -15 -3 -5 3 -7 10 -3 15 3 5 10
7 15 3 5 -3 7 -10 3 -15z m221 -29 c3 -5 -1 -10 -9 -10 -9 0 -16 5 -16 10 0 6
4 10 9 10 6 0 13 -4 16 -10z m-265 -34 c0 -2 -9 -6 -20 -9 -11 -3 -20 -1 -20
4 0 5 9 9 20 9 11 0 20 -2 20 -4z m83 -26 c-3 -12 -8 -19 -11 -16 -5 6 5 36
12 36 2 0 2 -9 -1 -20z m81 -35 c-7 -18 -17 -20 -11 -2 2 6 -3 18 -12 25 -14
11 -13 12 6 2 14 -6 20 -16 17 -25z m-139 5 c3 -5 1 -10 -4 -10 -6 0 -11 5
-11 10 0 6 2 10 4 10 3 0 8 -4 11 -10z m79 -32 c-10 -16 -22 -7 -17 13 4 15 8
17 14 8 4 -7 5 -17 3 -21z m-84 -18 c0 -5 -2 -10 -4 -10 -3 0 -8 5 -11 10 -3
6 -1 10 4 10 6 0 11 -4 11 -10z m-74 -34 c-22 -23 -37 -26 -18 -3 7 8 10 16 7
18 -2 3 4 5 14 6 17 1 17 0 -3 -21z m54 4 c-8 -5 -19 -10 -25 -10 -5 0 -3 5 5
10 8 5 20 10 25 10 6 0 3 -5 -5 -10z m-100 -10 c0 -5 -2 -10 -4 -10 -3 0 -8 5
-11 10 -3 6 -1 10 4 10 6 0 11 -4 11 -10z m270 -30 c0 -5 -2 -10 -4 -10 -3 0
-8 5 -11 10 -3 6 -1 10 4 10 6 0 11 -4 11 -10z"/>
<path d="M4476 291 c-10 -15 18 -19 32 -5 11 12 9 14 -7 14 -11 0 -22 -4 -25
-9z"/>
</g>
</svg>
